<svg xmlns="http://www.w3.org/2000/svg" xmlns:xlink="http://www.w3.org/1999/xlink" version="1.1" x="0px" y="0px" viewBox="0 0 100 125" style="enable-background:new 0 0 100 100;" xml:space="preserve"><path style="fill:#d0d0d0;" d="M18.3,16.4l0.4,8L15.8,25h-0.3c-0.2-4-0.2-4.7-0.3-4.9c-0.1-2.1-1.8-3.9-3.9-3.9c-2.2,0-3.9,1.7-3.9,3.9  c0,0.8,1,17.9,2.6,45.8c0.3,4.4,2,7.7,4.5,10c-1.2,1.1-2,2.5-2.2,4.2c-0.4,3.7,2.2,7.1,5.9,7.5c10.4,1.2,21.3,1.9,32.5,1.9  c11.6,0,23-0.7,33.7-2c3.4-0.4,5.9-3.3,5.9-6.7c0-0.3,0-0.6-0.1-0.8c-0.2-1.7-1.1-3.2-2.3-4.3c2.3-2.3,4-5.5,4.2-9.8  c1.6-27.9,2.6-45.1,2.6-45.8c0-2.2-1.7-3.9-3.9-3.9c-2.1,0-3.8,1.8-3.9,3.9c0,0.1,0,0.9-0.3,4.9h-0.3l-2.6-0.5l0.4-8.1  c0-3.4-2.8-6.5-6.2-6.5H24.5C21.1,10,18.3,13,18.3,16.4z M17.8,65.5c-1-16.7-1.6-27.3-2-34l3.1-0.7L20.9,65c0,2.7,1.8,5.1,4.3,5.9  L24.6,73C21.6,72.1,18.1,70.1,17.8,65.5z M69.1,75.3c-6,0.4-12.1,0.7-18.4,0.7c-6.1,0-12.1-0.2-17.9-0.6c-0.2-0.2-0.3-0.6-0.6-0.7  l0.4-3.7h36.1L69.1,75.3z M86.4,31.5c-0.4,6.7-1,17.3-2,34c-0.3,5-4.5,7-7.8,7.8l-0.5-2.1c3.1-0.3,5.6-3,5.6-6.2l1.8-34.1L86.4,31.5  z"/></svg>